<svg width="1620" height="297" viewBox="0 0 1620 297" fill="none" xmlns="http://www.w3.org/2000/svg">
<g clip-path="url(#clip0_1939_122)">
<path d="M450.266 243.663C470.349 243.663 486.489 227.18 486.489 207.115V97.8238C486.489 93.8818 483.26 90.2982 478.958 90.2982C475.013 90.2982 471.784 93.8818 471.784 97.8238V207.115C471.784 218.939 462.101 228.614 450.266 228.614C438.072 228.614 428.39 218.939 428.39 207.115V70.5905H478.957C483.26 70.5905 486.489 67.366 486.489 63.0656V36.5494C486.489 16.4832 470.349 0 450.266 0C429.823 0 413.684 16.4834 413.684 36.5494V207.115C413.684 227.18 429.823 243.663 450.266 243.663ZM428.39 36.5494C428.39 24.7242 438.072 15.0498 450.266 15.0498C462.102 15.0498 471.784 24.7242 471.784 36.5494V55.5405H428.39L428.39 36.5494Z" fill="#221F20"/>
<path d="M573.276 243.663C593.359 243.663 609.499 227.18 609.499 207.115V63.7822C609.499 59.8402 606.271 56.6157 602.326 56.6157H551.758V36.5494C551.758 24.7242 561.442 15.0498 573.276 15.0498C585.11 15.0498 594.794 24.7242 594.794 36.5494V42.2818C594.794 46.2245 598.023 49.449 602.326 49.449C606.271 49.449 609.499 46.2245 609.499 42.2818V36.5494C609.499 16.4832 593.36 0 573.276 0C553.192 0 536.695 16.4834 536.695 36.5494V63.7822C536.695 68.0826 539.923 71.3071 544.226 71.3071H594.794V207.115C594.794 218.939 585.112 228.614 573.276 228.614C561.44 228.614 551.758 218.939 551.758 207.115V85.9987C551.758 82.0574 548.171 78.4744 544.226 78.4744C539.923 78.4744 536.695 82.0574 536.695 85.9987V207.115C536.695 227.18 553.192 243.663 573.276 243.663Z" fill="#221F20"/>
<path d="M696.287 243.663C716.371 243.663 732.511 227.18 732.511 207.115V63.7822C732.511 59.8402 729.282 56.6157 725.337 56.6157H674.769V36.5494C674.769 24.7242 684.453 15.0498 696.287 15.0498C708.121 15.0498 717.806 24.7242 717.806 36.5494V42.2818C717.806 46.2245 721.034 49.449 725.337 49.449C729.282 49.449 732.511 46.2245 732.511 42.2818V36.5494C732.511 16.4832 716.371 0 696.287 0C676.204 0 659.706 16.4834 659.706 36.5494V63.7822C659.706 68.0826 662.935 71.3071 667.237 71.3071H717.806V207.115C717.806 218.939 708.123 228.614 696.287 228.614C684.451 228.614 674.769 218.939 674.769 207.115V85.9987C674.769 82.0574 671.183 78.4744 667.237 78.4744C662.935 78.4744 659.706 82.0574 659.706 85.9987V207.115C659.706 227.18 676.204 243.663 696.287 243.663Z" fill="#221F20"/>
<path d="M790.247 15.0498H807.821V236.139C807.821 240.439 811.048 243.663 815.352 243.663C819.297 243.663 822.525 240.439 822.525 236.139V15.0498H840.098C844.044 15.0498 847.63 11.8246 847.63 7.52489C847.63 3.5829 844.044 0 840.098 0H790.247C786.303 0 782.716 3.5829 782.716 7.52489C782.716 11.8246 786.303 15.0498 790.247 15.0498Z" fill="#221F20"/>
<path d="M934.419 243.663C954.502 243.663 970.642 227.18 970.642 207.115V97.8238C970.642 93.8818 967.413 90.2982 963.11 90.2982C959.166 90.2982 955.937 93.8818 955.937 97.8238V207.115C955.937 218.939 946.255 228.614 934.419 228.614C922.225 228.614 912.542 218.939 912.542 207.115V70.5905H963.11C967.413 70.5905 970.642 67.366 970.642 63.0656V36.5494C970.642 16.4832 954.502 0 934.419 0C913.976 0 897.837 16.4834 897.837 36.5494V207.115C897.837 227.18 913.976 243.663 934.419 243.663ZM912.543 36.5494C912.543 24.7242 922.225 15.0498 934.419 15.0498C946.255 15.0498 955.937 24.7242 955.937 36.5494V55.5405H912.543L912.543 36.5494Z" fill="#221F20"/>
<path d="M1057.07 243.663C1077.15 243.663 1093.65 227.18 1093.65 207.115V97.8238C1093.65 93.8818 1090.42 90.2982 1086.12 90.2982C1082.18 90.2982 1078.59 93.8818 1078.59 97.8238V207.115C1078.59 218.939 1069.26 228.614 1057.07 228.614C1045.23 228.614 1035.55 218.939 1035.55 207.115V36.5494C1035.55 24.7242 1045.23 15.0498 1057.07 15.0498C1069.26 15.0498 1078.59 24.7242 1078.59 36.5494V63.0656C1078.59 67.366 1082.18 70.5905 1086.12 70.5905C1090.42 70.5905 1093.65 67.366 1093.65 63.0656V36.5494C1093.65 16.4832 1077.15 0 1057.07 0C1036.99 0 1020.85 16.4834 1020.85 36.5494V207.115C1020.85 227.18 1036.99 243.663 1057.07 243.663Z" fill="#221F20"/>
<path d="M1145.93 120.858C1149.05 120.858 1151.7 119.763 1153.89 117.579C1156.08 115.389 1157.17 112.735 1157.17 109.613C1157.17 106.488 1156.08 103.873 1153.89 101.766C1151.7 99.6562 1149.05 98.6025 1145.93 98.6025C1142.8 98.6025 1140.15 99.6564 1137.96 101.766C1134.82 104.789 1133.94 108.855 1135.3 113.977C1137.86 118.559 1141.4 120.858 1145.93 120.858Z" fill="#221F20"/>
<path d="M1145.93 87.0552C1149.05 87.0552 1151.7 85.9725 1153.89 83.808C1157.04 80.6881 1157.93 76.6001 1156.53 71.5526C1153.96 67.0457 1150.43 64.7993 1145.93 64.7993C1142.8 64.7993 1140.15 65.879 1137.96 68.0433C1134.82 71.151 1133.94 75.2196 1135.31 80.2488C1137.87 84.7848 1141.4 87.0552 1145.93 87.0552Z" fill="#221F20"/>
<path d="M1611.98 63.4087H1609.91C1608.36 63.1478 1607.06 63.4087 1606.03 64.2016C1604.99 64.7363 1604.09 65.6583 1603.31 66.9782C1602.53 68.3058 1602.15 70.0233 1602.15 72.1359V288.633C1602.15 292.418 1605.22 295.487 1609 295.487H1613.15C1616.93 295.487 1620 292.418 1620 288.633V71.4276C1620 66.9994 1616.41 63.4087 1611.98 63.4087Z" fill="#221F20"/>
<path d="M133.448 205.105H217.091C221.25 205.105 224.621 201.734 224.621 197.575V197.25C224.621 193.091 221.25 189.72 217.091 189.72H183.39C183.12 189.72 182.847 189.677 182.592 189.587C175.339 187.027 170.364 180.533 170.364 173.446C170.364 166.033 177.764 158.099 185.37 157.29H216.974C221.133 157.29 224.504 153.919 224.504 149.76C224.504 145.638 221.169 142.281 217.048 142.229C197.143 141.977 190.694 142.079 187.883 142.127L186.636 142.142C186.496 142.142 186.359 142.148 186.22 142.158C181.018 142.569 175.892 144.196 171.449 146.835C161.431 152.623 155.449 162.572 155.449 173.446C155.449 177.867 156.529 182.331 158.56 186.471C159.296 187.971 158.247 189.72 156.577 189.72H133.448C129.289 189.72 125.917 193.091 125.917 197.25V197.575C125.917 201.734 129.289 205.105 133.448 205.105Z" fill="#221F20"/>
<path d="M1516.26 145.035C1512.38 145.035 1509.79 146.094 1508.5 148.207C1507.72 149.795 1507.33 152.571 1507.33 156.539V239.849C1507.33 253.604 1504.21 263.788 1497.96 270.395C1491.71 277.009 1481.02 280.313 1465.88 280.313C1458.97 280.313 1452.92 279.192 1447.74 276.942C1442.56 274.698 1438.24 271.851 1434.78 268.411C1431.33 264.979 1428.8 261.141 1427.21 256.908C1425.61 252.679 1424.82 248.575 1424.82 244.609V154.092C1424.82 149.09 1420.76 145.035 1415.76 145.035C1410.9 145.035 1406.96 148.972 1406.96 153.829V244.609C1406.96 254.131 1403.04 262.46 1395.21 269.602C1387.37 276.743 1376.41 280.313 1362.33 280.313C1348.25 280.313 1337.62 276.415 1330.45 268.61C1323.27 260.813 1319.69 251.75 1319.69 241.434V154.157C1319.69 149.119 1315.6 145.035 1310.57 145.035C1305.74 145.035 1301.84 148.943 1301.84 153.764V242.625C1301.84 247.127 1300.98 251.489 1299.26 255.717C1297.54 259.951 1295.22 263.788 1292.32 267.221C1289.4 270.661 1285.97 273.44 1282 275.553C1278.03 277.673 1273.53 278.727 1268.51 278.727H1182.43C1178.99 278.727 1175.61 278.069 1172.31 276.743C1169 275.423 1166.02 273.636 1163.38 271.387C1159.07 267.729 1156.18 263.009 1154.66 257.225L1154.66 153.209C1154.66 148.695 1151 145.035 1146.48 145.035H1144.18C1142.89 145.035 1141.72 145.43 1140.69 146.223C1138.36 147.55 1137.2 150.061 1137.2 153.762C1136.93 170.956 1136.8 186.558 1136.8 200.575V252.941C1136.8 262.461 1133.76 269.143 1127.68 272.975C1121.59 276.811 1112.6 278.727 1100.7 278.727H397.966C397.925 278.727 397.884 278.726 397.844 278.722C391.252 278.187 385.056 276.006 379.26 272.18C373.438 268.35 370.533 262.995 370.533 256.115V73.4019C370.533 67.8289 366.015 63.311 360.442 63.311C358.892 63.311 357.596 63.7085 356.56 64.5015C355.525 65.0336 354.621 65.9583 353.846 67.2784C353.066 68.6056 352.681 70.3206 352.681 72.4358V252.493C352.681 252.527 352.68 252.562 352.677 252.595C351.877 263.674 348.169 270.798 341.572 273.967C334.958 277.139 326.36 278.727 315.786 278.727H82.5186V295.389H315.595C324.841 295.389 333.695 293.937 342.156 291.024C350.063 288.307 356.59 283.966 361.727 278.003C362.226 277.424 363.111 277.548 363.454 278.231C364.979 281.271 367.094 283.815 369.802 285.869C372.932 288.248 376.346 290.169 380.053 291.621C383.754 293.078 387.654 294.069 391.756 294.596C395.854 295.128 399.623 295.389 403.063 295.389H1100.31C1107.97 294.862 1114.45 294 1119.74 292.811C1125.03 291.621 1129.53 290.102 1133.23 288.247C1136.13 286.928 1138.42 285.538 1140.1 284.082C1141.78 282.632 1143.14 281.243 1144.18 279.918C1145.21 278.596 1146.11 277.139 1146.9 275.553C1147.41 276.881 1148.18 278.201 1149.22 279.52C1149.99 280.848 1151.09 282.235 1152.52 283.687C1153.94 285.143 1155.71 286.53 1157.83 287.852C1161 289.97 1165.03 291.757 1169.93 293.207C1174.82 294.663 1180.7 295.389 1187.58 295.389H1270.04C1274.72 295.389 1279.41 294.847 1283.85 293.386C1288.29 291.924 1292.24 289.88 1295.69 287.256C1298.99 284.745 1301.81 281.969 1304.15 278.926L1309.31 272.193C1310.21 275.641 1312.1 278.744 1314.97 281.504C1318.54 284.944 1322.9 287.79 1328.06 290.032C1333.21 292.285 1338.9 294 1345.11 295.19C1351.32 296.381 1357.21 296.974 1362.76 296.974C1375.18 296.974 1386.23 294.596 1395.88 289.836C1405.53 285.073 1411.94 278.466 1415.12 270C1418.54 278.993 1424.61 285.737 1433.33 290.231C1442.04 294.733 1452.86 296.974 1465.8 296.974C1484.54 296.974 1499.12 292.679 1509.55 284.081C1519.97 275.491 1525.19 261.012 1525.19 240.642V153.961C1525.19 149.031 1521.19 145.035 1516.26 145.035Z" fill="#221F20"/>
<path d="M68.3793 278.883C39.7009 278.883 16.3689 255.551 16.3689 226.873V198.207C16.3689 193.687 12.7045 190.022 8.18447 190.022C3.6644 190.022 0 193.687 0 198.207V228.768H0.0479007C1.0545 265.654 31.2499 295.252 68.3791 295.252H289.701V278.883H68.3793Z" fill="#221F20"/>
</g>
<defs>
<clipPath id="clip0_1939_122">
<rect width="1620" height="296.975" fill="white"/>
</clipPath>
</defs>
</svg>
