<svg width="1620" height="297" viewBox="0 0 1620 297" fill="none" xmlns="http://www.w3.org/2000/svg">
<g clip-path="url(#clip0_1849_1441)">
<path d="M486.489 36.5493V63.0657C486.489 67.3658 483.261 70.5908 478.958 70.5908H428.39V207.115C428.39 218.939 438.072 228.614 450.266 228.614C462.102 228.614 471.784 218.939 471.784 207.115V97.824C471.784 93.8819 475.013 90.2988 478.958 90.2988C483.261 90.2988 486.489 93.8822 486.489 97.824V207.115C486.489 227.181 470.349 243.664 450.266 243.664C429.823 243.664 413.685 227.181 413.685 207.115V36.5493C413.685 16.4832 429.823 0 450.266 0C470.349 0 486.489 16.4832 486.489 36.5493ZM471.784 36.5493C471.784 24.7246 462.102 15.0498 450.266 15.0498C438.072 15.0498 428.389 24.7246 428.389 36.5493V55.5411H471.784L471.784 36.5493Z" fill="#222222"/>
<path d="M609.499 36.5493V42.2823C609.499 46.2244 606.27 49.4494 602.326 49.4494C598.023 49.4494 594.794 46.2241 594.794 42.2823V36.5493C594.794 24.7246 585.112 15.0498 573.276 15.0498C561.44 15.0498 551.758 24.7246 551.758 36.5493V56.6159H602.326C606.271 56.6159 609.499 59.8404 609.499 63.7824V207.115C609.499 227.181 593.359 243.664 573.276 243.664C553.192 243.664 536.694 227.181 536.694 207.115V85.9987C536.694 82.0575 539.923 78.4741 544.226 78.4741C548.171 78.4741 551.757 82.0575 551.757 85.9987V207.115C551.757 218.939 561.441 228.614 573.276 228.614C585.11 228.614 594.794 218.939 594.794 207.115V71.3076H544.226C539.923 71.3076 536.694 68.0823 536.694 63.7824V36.5493C536.694 16.4832 553.192 0 573.276 0C593.359 0 609.499 16.4832 609.499 36.5493Z" fill="#222222"/>
<path d="M732.511 36.5493V42.2823C732.511 46.2244 729.282 49.4494 725.337 49.4494C721.034 49.4494 717.806 46.2241 717.806 42.2823V36.5493C717.806 24.7246 708.123 15.0498 696.288 15.0498C684.452 15.0498 674.769 24.7246 674.769 36.5493V56.6159H725.337C729.282 56.6159 732.511 59.8404 732.511 63.7824V207.115C732.511 227.181 716.371 243.664 696.287 243.664C676.204 243.664 659.706 227.181 659.706 207.115V85.9987C659.706 82.0575 662.935 78.4741 667.238 78.4741C671.182 78.4741 674.769 82.0575 674.769 85.9987V207.115C674.769 218.939 684.453 228.614 696.287 228.614C708.122 228.614 717.806 218.939 717.806 207.115V71.3076H667.238C662.935 71.3076 659.706 68.0823 659.706 63.7824V36.5493C659.706 16.4832 676.204 0 696.287 0C716.371 0 732.511 16.4832 732.511 36.5493Z" fill="#222222"/>
<path d="M847.63 7.52514C847.63 11.8245 844.044 15.0498 840.098 15.0498H822.525V236.139C822.525 240.439 819.298 243.664 815.353 243.664C811.049 243.664 807.821 240.439 807.821 236.139V15.0498H790.248C786.303 15.0498 782.716 11.8245 782.716 7.52514C782.716 3.58312 786.303 0 790.248 0H840.098C844.044 0 847.63 3.58339 847.63 7.52514Z" fill="#222222"/>
<path d="M970.642 36.5493V63.0657C970.642 67.3658 967.413 70.5908 963.111 70.5908H912.543V207.115C912.543 218.939 922.225 228.614 934.419 228.614C946.255 228.614 955.937 218.939 955.937 207.115V97.824C955.937 93.8819 959.166 90.2988 963.111 90.2988C967.414 90.2988 970.642 93.8822 970.642 97.824V207.115C970.642 227.181 954.502 243.664 934.419 243.664C913.976 243.664 897.837 227.181 897.837 207.115V36.5493C897.837 16.4832 913.976 0 934.419 0C954.502 0 970.642 16.4832 970.642 36.5493ZM955.937 36.5493C955.937 24.7246 946.255 15.0498 934.419 15.0498C922.225 15.0498 912.542 24.7246 912.542 36.5493V55.5411H955.937L955.937 36.5493Z" fill="#222222"/>
<path d="M1093.65 36.5493V63.0657C1093.65 67.3658 1090.42 70.5908 1086.12 70.5908C1082.18 70.5908 1078.59 67.3655 1078.59 63.0657V36.5493C1078.59 24.7246 1069.27 15.0498 1057.07 15.0498C1045.24 15.0498 1035.55 24.7246 1035.55 36.5493V207.115C1035.55 218.939 1045.24 228.614 1057.07 228.614C1069.26 228.614 1078.59 218.939 1078.59 207.115V97.824C1078.59 93.8819 1082.18 90.2988 1086.12 90.2988C1090.42 90.2988 1093.65 93.8822 1093.65 97.824V207.115C1093.65 227.181 1077.15 243.664 1057.07 243.664C1036.99 243.664 1020.85 227.181 1020.85 207.115V36.5493C1020.85 16.4832 1036.99 0 1057.07 0C1077.16 0 1093.65 16.4832 1093.65 36.5493Z" fill="#222222"/>
<path d="M447.099 279.467V294.028C447.099 294.608 446.629 295.078 446.049 295.078H403.063C399.623 295.078 395.854 294.817 391.755 294.285C387.654 293.758 383.754 292.767 380.053 291.31C376.347 289.858 372.932 287.937 369.802 285.558C367.094 283.503 364.979 280.96 363.454 277.92C363.111 277.237 362.225 277.113 361.727 277.692C356.589 283.655 350.063 287.996 342.156 290.713C333.694 293.627 324.841 295.078 315.594 295.078H57.4874C41.3657 295.078 27.8835 291.576 17.0463 284.566C6.21149 277.562 0.526837 265.857 0 249.456V242.315C0 239.675 0.131709 237.028 0.397772 234.38C0.658546 231.475 0.924609 228.43 1.19067 225.255C1.19067 223.409 1.32238 221.358 1.58844 219.108C1.84922 216.864 2.38134 214.881 3.17424 213.158C3.96714 211.44 5.2197 209.922 6.9425 208.594C7.80126 207.934 8.80865 207.438 9.9652 207.107C11.9736 206.533 14.1098 206.645 16.1428 207.126C19.4985 207.919 22.184 213.368 20.8272 226.645C20.215 232.637 19.4403 238.614 19.4403 244.696C19.4403 267.179 32.6615 278.417 59.1118 278.417H315.785C326.359 278.417 334.957 276.828 341.572 273.657C348.168 270.487 351.876 263.363 352.677 252.284C352.679 252.25 352.68 252.216 352.68 252.182V72.125C352.68 70.0097 353.065 68.2948 353.845 66.9671C354.62 65.6474 355.524 64.7228 356.56 64.1907C357.595 63.3978 358.892 63 360.442 63C366.015 63 370.533 67.5178 370.533 73.0908V255.804C370.533 262.685 373.438 268.039 379.26 271.869C385.056 275.695 391.252 277.876 397.844 278.411C397.884 278.415 397.925 278.416 397.966 278.416H446.048C446.628 278.416 447.099 278.887 447.099 279.467Z" fill="#222222"/>
<path d="M499.07 295.078H420.122V278.417H499.07V295.078Z" fill="#222222"/>
<path d="M560.561 295.078H481.613V278.417H560.561V295.078Z" fill="#222222"/>
<path d="M622.051 295.078H543.104V278.417H622.051V295.078Z" fill="#222222"/>
<path d="M683.542 295.078H604.594V278.417H683.542V295.078Z" fill="#222222"/>
<path d="M745.033 295.078H666.085V278.417H745.033V295.078Z" fill="#222222"/>
<path d="M806.523 295.078H727.576V278.417H806.523V295.078Z" fill="#222222"/>
<path d="M868.014 295.078H789.066V278.417H868.014V295.078Z" fill="#222222"/>
<path d="M929.505 295.078H850.557V278.417H929.505V295.078Z" fill="#222222"/>
<path d="M1064.41 295.078H912.048V278.417H1064.41V295.078Z" fill="#222222"/>
<path d="M1228.84 278.417V295.079H1187.58C1180.7 295.079 1174.82 294.353 1169.93 292.896C1165.03 291.447 1161 289.66 1157.83 287.542C1155.71 286.22 1153.94 284.833 1152.52 283.376C1151.09 281.925 1149.99 280.538 1149.22 279.21C1148.18 277.89 1147.41 276.571 1146.89 275.243C1146.12 276.829 1145.21 278.286 1144.18 279.608C1143.14 280.933 1141.78 282.323 1140.1 283.771C1138.42 285.228 1136.13 286.618 1133.23 287.937C1129.53 289.792 1125.03 291.31 1119.74 292.501C1114.45 293.689 1107.97 294.552 1100.31 295.079H1037.23V278.417H1100.7C1112.6 278.417 1121.59 276.501 1127.68 272.665C1133.76 268.833 1136.8 262.151 1136.8 252.631V200.265C1136.8 186.248 1136.93 170.646 1137.2 153.452C1137.2 149.751 1138.36 147.241 1140.69 145.913C1141.72 145.12 1142.89 144.725 1144.18 144.725H1146.48C1151 144.725 1154.66 148.385 1154.66 152.899V256.915C1156.17 262.699 1159.07 267.42 1163.38 271.077C1166.02 273.327 1169 275.114 1172.31 276.434C1175.61 277.759 1178.99 278.417 1182.43 278.417H1228.84ZM1145.93 86.7452C1141.4 86.7452 1137.87 84.4749 1135.31 79.9392C1133.94 74.9099 1134.82 70.8412 1137.96 67.7333C1140.15 65.5691 1142.8 64.4893 1145.93 64.4893C1150.43 64.4893 1153.96 66.7357 1156.53 71.2427C1157.93 76.2899 1157.04 80.3782 1153.89 83.4982C1151.7 85.6624 1149.05 86.7452 1145.93 86.7452ZM1145.93 120.549C1141.4 120.549 1137.86 118.249 1135.3 113.668C1133.94 108.546 1134.82 104.48 1137.96 101.456C1140.15 99.3464 1142.8 98.2925 1145.93 98.2925C1149.05 98.2925 1151.7 99.3464 1153.89 101.456C1156.08 103.564 1157.17 106.178 1157.17 109.303C1157.17 112.425 1156.08 115.079 1153.89 117.269C1151.7 119.454 1149.05 120.549 1145.93 120.549Z" fill="#222222"/>
<path d="M1516.26 145C1521.19 145 1525.19 148.996 1525.19 153.926V240.607C1525.19 260.977 1519.97 275.456 1509.55 284.046C1499.12 292.644 1484.54 296.94 1465.8 296.94C1452.86 296.94 1442.04 294.698 1433.33 290.196C1424.61 285.702 1418.54 278.958 1415.12 269.965C1411.94 278.431 1405.53 285.038 1395.88 289.801C1386.23 294.561 1375.18 296.94 1362.76 296.94C1357.21 296.94 1351.32 296.345 1345.11 295.155C1338.9 293.964 1333.21 292.249 1328.06 289.997C1322.9 287.755 1318.54 284.909 1314.97 281.469C1312.1 278.709 1310.21 275.606 1309.31 272.159L1304.15 278.891C1301.81 281.934 1298.99 284.71 1295.69 287.221C1292.24 289.845 1288.29 291.888 1283.85 293.351C1279.41 294.812 1274.72 295.354 1270.04 295.354H1206.71C1203.81 295.354 1201.47 293.006 1201.47 290.11V283.935C1201.47 281.04 1203.81 278.692 1206.71 278.692H1268.51C1273.53 278.692 1278.03 277.639 1282 275.518C1285.97 273.405 1289.4 270.626 1292.32 267.186C1295.22 263.753 1297.54 259.915 1299.26 255.682C1300.98 251.454 1301.84 247.092 1301.84 242.59V153.73C1301.84 148.908 1305.74 145 1310.57 145C1315.6 145 1319.69 149.084 1319.69 154.122V241.399C1319.69 251.715 1323.27 260.778 1330.45 268.575C1337.62 276.381 1348.25 280.278 1362.33 280.278C1376.41 280.278 1387.37 276.709 1395.21 269.567C1403.04 262.426 1406.97 254.096 1406.97 244.574V153.794C1406.97 148.937 1410.9 145 1415.76 145C1420.76 145 1424.82 149.055 1424.82 154.058V244.574C1424.82 248.541 1425.61 252.645 1427.21 256.873C1428.8 261.106 1431.33 264.944 1434.78 268.377C1438.24 271.817 1442.56 274.663 1447.74 276.908C1452.92 279.157 1458.97 280.278 1465.88 280.278C1481.02 280.278 1491.71 276.975 1497.96 270.36C1504.21 263.754 1507.33 253.57 1507.33 239.814V156.504C1507.33 152.537 1507.72 149.76 1508.5 148.172C1509.79 146.059 1512.38 145 1516.26 145Z" fill="#222222"/>
<path d="M1613.15 297.176H1609C1605.22 297.176 1602.15 294.107 1602.15 290.321V73.8248C1602.15 71.7122 1602.53 69.9947 1603.31 68.667C1604.09 67.3473 1604.99 66.425 1606.03 65.8905C1607.06 65.0976 1608.36 64.8369 1609.91 65.0976H1611.98C1616.41 65.0976 1620 68.6879 1620 73.1165V290.321C1620 294.107 1616.93 297.176 1613.15 297.176Z" fill="#222222"/>
<path d="M217.09 189.409H183.389C183.119 189.409 182.847 189.366 182.592 189.276C175.338 186.717 170.364 180.223 170.364 173.135C170.364 165.723 177.764 157.788 185.37 156.98H216.974C221.133 156.98 224.504 153.608 224.504 149.449C224.504 145.327 221.169 141.971 217.047 141.919C197.143 141.666 190.694 141.769 187.883 141.816L186.635 141.832C186.496 141.832 186.359 141.837 186.22 141.847C181.018 142.258 175.891 143.885 171.449 146.525C161.43 152.313 155.448 162.262 155.448 173.135C155.448 177.557 156.529 182.02 158.56 186.161C159.295 187.661 158.247 189.409 156.576 189.409H133.447C129.289 189.409 125.917 192.781 125.917 196.94V197.264C125.917 201.423 129.289 204.795 133.447 204.795H217.09C221.249 204.795 224.621 201.423 224.621 197.264V196.94C224.621 192.781 221.249 189.409 217.09 189.409Z" fill="#222222"/>
</g>
<defs>
<clipPath id="clip0_1849_1441">
<rect width="1620" height="296.975" fill="white"/>
</clipPath>
</defs>
</svg>
